<svg height="20" width="22" xmlns="http://www.w3.org/2000/svg"><path d="m20.925 3.641h-17.062l-.253-2.825a.896.896 0 0 0 -.893-.816h-1.82a.896.896 0 1 0 0 1.792h1l1.031 11.483c.073.828.52 1.726 1.291 2.336-1.389 1.774-.12 4.389 2.14 4.389 1.875 0 3.197-1.87 2.554-3.642h4.905c-.642 1.77.677 3.642 2.555 3.642a2.72 2.72 0 0 0 2.717-2.717 2.72 2.72 0 0 0 -2.717-2.717h-10.008c-.681 0-1.274-.41-1.53-1.009l14.321-.842a.896.896 0 0 0 .817-.677l1.821-7.283a.897.897 0 0 0 -.87-1.114zm-14.567 14.567a.926.926 0 0 1 0-1.85.926.926 0 0 1 0 1.85zm10.015 0a.926.926 0 0 1 0-1.85.926.926 0 0 1 0 1.85zm2.021-7.243-13.8.81-.57-6.341h15.753l-1.383 5.53z" fill="#69707d"/></svg>